<svg width="28" height="28" viewBox="0 0 28 28" fill="none" xmlns="http://www.w3.org/2000/svg">
<circle cx="14" cy="14" r="14" fill="#3BE23C"/>
<g clip-path="url(#clip0_235_2048)">
<path fill-rule="evenodd" clip-rule="evenodd" d="M19.5682 9.98133C19.7322 10.1454 19.8244 10.3679 19.8244 10.6C19.8244 10.832 19.7322 11.0545 19.5682 11.2186L13.0098 17.777C12.9231 17.8637 12.8202 17.9325 12.707 17.9794C12.5937 18.0263 12.4723 18.0504 12.3497 18.0504C12.2271 18.0504 12.1058 18.0263 11.9925 17.9794C11.8793 17.9325 11.7764 17.8637 11.6897 17.777L8.43119 14.5191C8.34762 14.4384 8.28096 14.3418 8.2351 14.2351C8.18924 14.1283 8.16511 14.0135 8.1641 13.8973C8.16309 13.7811 8.18523 13.6659 8.22922 13.5584C8.27322 13.4508 8.33819 13.3531 8.42034 13.271C8.5025 13.1888 8.6002 13.1239 8.70773 13.0799C8.81526 13.0359 8.93048 13.0137 9.04667 13.0147C9.16285 13.0157 9.27767 13.0399 9.38442 13.0857C9.49117 13.1316 9.58772 13.1983 9.66844 13.2818L12.3494 15.9628L18.3304 9.98133C18.4116 9.90002 18.5081 9.83552 18.6143 9.79151C18.7205 9.7475 18.8343 9.72485 18.9493 9.72485C19.0642 9.72485 19.1781 9.7475 19.2843 9.79151C19.3904 9.83552 19.4869 9.90002 19.5682 9.98133Z" fill="white"/>
</g>
<defs>
<clipPath id="clip0_235_2048">
<rect width="14" height="14" fill="white" transform="translate(7 7)"/>
</clipPath>
</defs>
</svg>
