<svg width="22" height="19" viewBox="0 0 22 19" fill="none" xmlns="http://www.w3.org/2000/svg">
<path d="M2.275 12.8316C1.425 11.7276 1 11.1746 1 9.53564C1 7.89564 1.425 7.34465 2.275 6.23965C3.972 4.03565 6.818 1.53564 11 1.53564C15.182 1.53564 18.028 4.03565 19.725 6.23965C20.575 7.34564 21 7.89664 21 9.53564C21 11.1756 20.575 11.7266 19.725 12.8316C18.028 15.0356 15.182 17.5356 11 17.5356C6.818 17.5356 3.972 15.0356 2.275 12.8316Z" stroke="#D0D0D0" stroke-width="1.5"/>
<path d="M14 9.53564C14 10.3313 13.6839 11.0944 13.1213 11.657C12.5587 12.2196 11.7956 12.5356 11 12.5356C10.2044 12.5356 9.44129 12.2196 8.87868 11.657C8.31607 11.0944 8 10.3313 8 9.53564C8 8.74 8.31607 7.97693 8.87868 7.41432C9.44129 6.85171 10.2044 6.53564 11 6.53564C11.7956 6.53564 12.5587 6.85171 13.1213 7.41432C13.6839 7.97693 14 8.74 14 9.53564Z" stroke="#D0D0D0" stroke-width="1.5"/>
<rect x="19.2729" width="1.90751" height="24.6644" transform="rotate(44.7344 19.2729 0)" fill="#D9D9D9"/>
</svg>
