<svg width="22" height="22" viewBox="0 0 22 22" fill="none" xmlns="http://www.w3.org/2000/svg">
<g clip-path="url(#clip0_371_48)">
<path d="M11 3.36016C11.356 3.36016 11.6445 3.07158 11.6445 2.71563V0.644531C11.6445 0.288578 11.356 0 11 0C10.644 0 10.3555 0.288578 10.3555 0.644531V2.71563C10.3555 3.07158 10.644 3.36016 11 3.36016Z" fill="#5228DE"/>
<path d="M4.68645 5.59799C4.93816 5.8497 5.34623 5.8497 5.59794 5.59799C5.84965 5.34628 5.84965 4.9382 5.59794 4.68649L4.13348 3.22199C3.88177 2.97028 3.4737 2.97028 3.22199 3.22199C2.97028 3.4737 2.97028 3.88177 3.22199 4.13348L4.68645 5.59799Z" fill="#5228DE"/>
<path d="M4.68645 16.4027L3.22199 17.8671C2.97028 18.1188 2.97028 18.5269 3.22199 18.7786C3.4737 19.0303 3.88177 19.0303 4.13348 18.7786L5.59799 17.3141C5.8497 17.0624 5.8497 16.6543 5.59799 16.4026C5.34628 16.1509 4.93816 16.151 4.68645 16.4027Z" fill="#5228DE"/>
<path d="M11 18.6399C10.644 18.6399 10.3555 18.9285 10.3555 19.2844V21.3555C10.3555 21.7115 10.644 22 11 22C11.356 22 11.6445 21.7115 11.6445 21.3555V19.2844C11.6445 18.9285 11.356 18.6399 11 18.6399Z" fill="#5228DE"/>
<path d="M3.36016 11C3.36016 10.644 3.07158 10.3555 2.71563 10.3555H0.644531C0.288578 10.3555 0 10.644 0 11C0 11.356 0.288578 11.6445 0.644531 11.6445H2.71563C3.07158 11.6445 3.36016 11.356 3.36016 11Z" fill="#5228DE"/>
<path d="M11.0005 5.52295C7.98048 5.52295 5.52344 7.97999 5.52344 11C5.52344 14.0201 7.98048 16.4771 11.0005 16.4771C14.0206 16.4771 16.4776 14.0201 16.4776 11C16.4776 7.97999 14.0206 5.52295 11.0005 5.52295Z" fill="#5228DE"/>
<path d="M17.3151 5.5975L18.7796 4.13299C19.0313 3.88128 19.0313 3.47321 18.7796 3.2215C18.5279 2.96979 18.1198 2.96979 17.8681 3.2215L16.4036 4.686C16.1519 4.93771 16.1519 5.34579 16.4036 5.5975C16.6553 5.84921 17.0634 5.84921 17.3151 5.5975Z" fill="#5228DE"/>
<path d="M17.3132 16.4022C17.0615 16.1505 16.6534 16.1505 16.4017 16.4022C16.15 16.6539 16.15 17.0619 16.4017 17.3137L17.8662 18.7782C18.1179 19.0299 18.526 19.0299 18.7777 18.7782C19.0294 18.5265 19.0294 18.1184 18.7777 17.8667L17.3132 16.4022Z" fill="#5228DE"/>
<path d="M21.3563 10.3555H19.2852C18.9292 10.3555 18.6406 10.644 18.6406 11C18.6406 11.356 18.9292 11.6445 19.2852 11.6445H21.3563C21.7122 11.6445 22.0008 11.356 22.0008 11C22.0008 10.644 21.7122 10.3555 21.3563 10.3555Z" fill="#5228DE"/>
</g>
<defs>
<clipPath id="clip0_371_48">
<rect width="22" height="22" fill="white"/>
</clipPath>
</defs>
</svg>
