<svg width="18" height="20" viewBox="0 0 18 20" fill="none" xmlns="http://www.w3.org/2000/svg">
<path d="M15.1876 7.90075V7.2545C15.1876 3.70792 12.4156 0.833252 9.00006 0.833252C5.58456 0.833252 2.81256 3.70792 2.81256 7.2545V7.90075C2.81366 8.67218 2.59351 9.42774 2.17822 10.0778L1.16256 11.6591C0.235807 13.1028 0.943473 15.0654 2.55589 15.5219C6.76899 16.7163 11.2311 16.7163 15.4442 15.5219C17.0566 15.0654 17.7643 13.1028 16.8376 11.66L15.8219 10.0788C15.4063 9.42875 15.1858 8.67318 15.1866 7.90167L15.1876 7.90075Z" stroke="#5228DE" stroke-width="1.5"/>
<path opacity="0.5" d="M4.875 16.4165C5.47542 18.0188 7.09517 19.1665 9 19.1665C10.9048 19.1665 12.5246 18.0188 13.125 16.4165" stroke="#5228DE" stroke-width="1.5" stroke-linecap="round"/>
</svg>
