<svg width="17" height="18" viewBox="0 0 17 18" fill="none" xmlns="http://www.w3.org/2000/svg">
<path d="M2.69657 5.01162C2.59032 4.98351 2.49154 4.93239 2.40724 4.86189C2.32293 4.79139 2.25515 4.70321 2.20868 4.60361C2.16222 4.50401 2.13822 4.39542 2.13837 4.28552C2.13852 4.17561 2.16283 4.06709 2.20957 3.96762L3.86957 0.432616C3.93003 0.303165 4.02621 0.193677 4.14679 0.117036C4.26737 0.0403949 4.40733 -0.000209299 4.5502 8.11308e-07C4.69308 0.000210921 4.83292 0.0412268 4.95327 0.118222C5.07363 0.195217 5.16949 0.304987 5.22957 0.434616L5.96157 2.00362C5.98771 1.99313 6.01442 1.98412 6.04157 1.97662C7.76857 1.51409 9.59975 1.63228 11.253 2.31298C12.9062 2.99368 14.2897 4.19912 15.1904 5.74356C16.091 7.28801 16.4588 9.08576 16.2371 10.8598C16.0154 12.6339 15.2165 14.2858 13.9634 15.5611C12.7104 16.8364 11.0728 17.6643 9.30286 17.9172C7.53297 18.1701 5.72902 17.834 4.16896 16.9607C2.6089 16.0874 1.3793 14.7253 0.669602 13.0843C-0.0400913 11.4433 -0.190494 9.6145 0.241567 7.87962C0.265467 7.78401 0.307964 7.69406 0.366631 7.61488C0.425297 7.5357 0.498985 7.46885 0.583486 7.41815C0.667987 7.36745 0.761648 7.33389 0.859119 7.31938C0.95659 7.30488 1.05596 7.30972 1.15157 7.33362C1.24717 7.35752 1.33713 7.40001 1.41631 7.45868C1.49548 7.51735 1.56233 7.59103 1.61303 7.67554C1.66373 7.76004 1.69729 7.8537 1.7118 7.95117C1.7263 8.04864 1.72147 8.14801 1.69757 8.24362C1.34718 9.65175 1.467 11.1358 2.03873 12.4695C2.61047 13.8032 3.60275 14.9133 4.86421 15.6304C6.12568 16.3476 7.58709 16.6325 9.02555 16.4416C10.464 16.2507 11.8006 15.5946 12.8313 14.5732C13.8621 13.5519 14.5305 12.2215 14.7347 10.7848C14.9388 9.34818 14.6674 7.8842 13.9619 6.61618C13.2564 5.34816 12.1555 4.3457 10.8272 3.7617C9.49879 3.1777 8.01587 3.04422 6.60457 3.38162L7.34457 4.96462C7.40514 5.0939 7.42756 5.23779 7.40918 5.37938C7.39081 5.52096 7.3324 5.65436 7.24082 5.7639C7.14924 5.87343 7.0283 5.95455 6.89221 5.99773C6.75612 6.0409 6.61054 6.04433 6.47257 6.00762L2.69657 5.01162Z" fill="white"/>
</svg>
