<svg width="22" height="22" viewBox="0 0 22 22" fill="none" xmlns="http://www.w3.org/2000/svg">
<path d="M20.7502 20.75L16.0453 16.0451M16.0453 16.0451C16.8501 15.2403 17.4885 14.2848 17.9241 13.2333C18.3596 12.1818 18.5838 11.0548 18.5838 9.91665C18.5838 8.77849 18.3596 7.65149 17.9241 6.59997C17.4885 5.54846 16.8501 4.59302 16.0453 3.78823C15.2405 2.98343 14.2851 2.34504 13.2336 1.90948C12.182 1.47393 11.055 1.24976 9.91689 1.24976C8.77874 1.24976 7.65173 1.47393 6.60021 1.90948C5.5487 2.34504 4.59327 2.98343 3.78847 3.78823C2.16312 5.41359 1.25 7.61804 1.25 9.91665C1.25 12.2152 2.16312 14.4197 3.78847 16.0451C5.41383 17.6704 7.61829 18.5835 9.91689 18.5835C12.2155 18.5835 14.4199 17.6704 16.0453 16.0451Z" stroke="#5228DE" stroke-width="1.5" stroke-linecap="round" stroke-linejoin="round"/>
</svg>
